<?xml version="1.0" standalone="no"?>
<!DOCTYPE svg PUBLIC "-//W3C//DTD SVG 20010904//EN"
 "http://www.w3.org/TR/2001/REC-SVG-20010904/DTD/svg10.dtd">
<svg version="1.0" xmlns="http://www.w3.org/2000/svg"
 width="730.000000pt" height="441.000000pt" viewBox="0 0 730.000000 441.000000"
 preserveAspectRatio="xMidYMid meet">

<g transform="translate(0.000000,441.000000) scale(0.100000,-0.100000)"
fill="#000000" stroke="none">
<path d="M0 2205 l0 -2205 563 0 c560 0 564 0 583 21 36 40 276 149 329 149
31 0 48 -30 36 -62 -13 -34 -27 -43 -101 -67 -36 -12 -72 -26 -80 -31 -10 -7
101 -9 323 -8 318 2 337 3 332 20 -4 9 -2 26 4 36 8 15 6 23 -9 37 -11 10 -20
23 -20 29 0 19 132 76 177 76 41 0 41 0 45 42 3 24 3 46 1 50 -6 11 -43 -15
-43 -29 0 -19 -9 -17 -92 31 -75 43 -95 45 -84 8 2 -9 7 -27 10 -38 6 -18 1
-22 -26 -28 -30 -6 -30 -7 -13 -20 18 -13 16 -16 -28 -43 -42 -28 -57 -31
-167 -37 -102 -6 -125 -5 -145 8 -14 9 -32 16 -42 16 -10 0 -14 3 -8 8 6 4 18
19 27 34 17 26 78 64 78 48 0 -5 56 -10 125 -12 69 -2 125 -2 125 0 0 2 -17
10 -37 18 -78 32 -218 99 -226 109 -4 5 -5 19 -1 30 3 11 6 25 6 32 1 6 7 9
14 6 6 -2 15 0 18 5 10 17 76 4 141 -27 52 -25 69 -29 89 -21 14 5 26 12 26
15 0 4 -4 3 -10 0 -5 -3 -17 -2 -26 3 -24 13 -4 22 61 29 52 5 57 4 135 -46
44 -28 85 -51 90 -51 15 0 43 48 37 64 -3 8 -16 16 -29 18 -25 3 -38 42 -19
61 24 24 12 36 -23 25 -30 -10 -119 -3 -231 17 -16 3 -24 2 -17 -1 6 -3 12
-12 12 -19 0 -7 6 -15 13 -18 9 -3 7 -10 -6 -23 -28 -29 -119 -22 -209 16 -40
17 -79 37 -88 44 -8 7 -21 11 -27 9 -7 -3 -13 0 -13 6 0 6 9 11 20 11 35 0 21
20 -15 22 -19 0 -41 1 -47 2 -7 1 -13 -10 -13 -24 0 -19 7 -28 30 -35 47 -16
95 -44 95 -56 0 -6 -4 -8 -9 -5 -5 4 -11 0 -14 -6 -6 -19 -94 28 -100 54 -5
16 -9 18 -26 9 -11 -6 -27 -11 -36 -11 -8 0 -30 -16 -47 -36 -30 -34 -76 -64
-98 -64 -17 0 -11 40 11 71 l20 29 -25 0 c-13 0 -31 2 -39 6 -11 4 -17 -12
-26 -71 -7 -41 -17 -73 -22 -70 -5 4 -9 2 -9 -4 0 -5 -3 -18 -6 -28 -5 -16 -4
-16 11 2 17 19 17 19 12 -19 -7 -43 -41 -86 -68 -86 -27 0 -39 32 -39 104 0
63 -1 67 -31 85 -19 12 -26 21 -19 26 6 4 18 1 26 -6 13 -10 14 -8 10 14 -3
15 -1 27 4 27 5 0 8 32 6 70 -2 39 0 70 5 70 4 0 10 9 14 19 4 14 14 19 38 18
18 0 45 3 61 8 l30 8 -27 -29 c-34 -36 -35 -51 -2 -30 13 9 44 16 68 16 31 0
49 6 62 20 10 11 26 20 36 20 10 0 20 4 23 9 3 4 33 2 67 -6 68 -16 71 -14
104 54 8 17 25 35 36 38 13 5 18 12 14 22 -6 18 33 66 47 57 5 -3 17 1 26 9 9
8 32 18 50 22 36 7 39 13 16 41 -14 18 -15 18 -4 -3 7 -16 7 -23 0 -23 -5 0
-10 3 -10 8 0 4 -10 12 -22 17 -12 6 -44 37 -70 70 -36 44 -48 68 -48 92 0 18
-3 33 -6 33 -3 0 -27 -18 -52 -40 -54 -48 -78 -49 -76 -3 2 26 -2 33 -20 35
-32 5 -32 42 0 67 15 11 32 21 39 21 7 0 18 7 25 15 11 13 8 15 -13 15 -14 0
-38 5 -53 10 -21 8 -24 14 -16 22 7 7 12 20 12 29 0 19 17 24 103 34 31 4 57
10 57 13 0 2 -11 15 -25 28 -46 42 -25 121 25 94 35 -19 33 -5 -4 31 -29 28
-34 39 -29 62 7 34 42 51 78 37 23 -9 25 -7 25 20 0 26 -4 30 -26 30 -30 0
-97 37 -89 50 3 4 -4 10 -15 13 -21 5 -28 27 -8 27 6 0 3 9 -7 20 -18 20 -17
20 8 20 15 0 42 -8 62 -17 19 -9 37 -14 40 -11 3 3 -14 26 -37 51 l-43 47 -34
-28 c-39 -30 -82 -55 -189 -108 l-73 -37 21 -22 c11 -12 17 -25 13 -30 -5 -4
-3 -6 2 -2 6 3 18 -1 28 -8 18 -13 18 -14 0 -23 -15 -9 -4 -17 67 -51 84 -40
100 -43 100 -15 0 9 7 14 17 12 22 -4 29 -28 9 -28 -10 0 -16 -9 -16 -25 0
-21 -8 -26 -52 -40 -28 -8 -61 -15 -73 -15 -30 0 -226 93 -249 118 -18 21 -15
42 7 42 7 0 19 5 27 10 13 8 12 11 -5 25 -18 14 -16 14 14 0 18 -9 31 -13 29
-8 -26 52 -34 63 -47 64 -9 0 3 8 26 17 26 10 44 23 47 37 3 12 22 42 41 68
20 26 35 53 34 59 -5 28 13 94 32 118 l20 25 -6 -32 c-8 -40 3 -46 82 -48 62
-2 63 -1 63 26 0 25 -2 26 -34 19 -52 -11 -55 -4 -41 85 17 100 35 143 81 192
48 51 77 118 64 144 -8 15 -7 19 4 19 25 0 122 -28 143 -41 17 -10 25 -8 57
17 20 16 40 43 45 59 7 29 10 30 59 29 31 -1 52 3 52 9 0 6 10 22 23 35 21 23
21 25 3 36 -10 6 -49 35 -87 64 -70 54 -89 62 -89 37 0 -30 -54 -38 -72 -11
-20 30 -8 53 35 66 23 7 46 17 52 22 5 4 24 8 42 8 36 0 38 3 47 95 5 53 23
105 37 105 5 0 11 -17 15 -37 4 -21 8 -41 11 -45 3 -6 97 32 110 46 4 3 -4 17
-16 30 -14 15 -19 26 -12 31 14 8 14 56 1 53 -16 -4 -44 47 -37 66 4 10 18 16
37 16 24 0 32 6 43 33 17 41 34 54 72 59 26 3 30 7 31 33 1 17 2 35 3 42 0 6
27 21 59 33 31 12 66 30 77 39 34 31 185 131 212 142 21 8 33 5 64 -17 42 -29
79 -26 79 6 0 16 -5 19 -28 14 -36 -6 -44 1 -77 65 -22 45 -24 56 -13 67 15
15 32 8 92 -40 28 -22 40 -26 48 -18 18 18 42 14 56 -8 18 -29 29 -25 42 15 6
19 16 35 21 35 5 0 9 4 9 8 0 5 -23 14 -51 21 -84 22 -74 69 16 76 39 3 53 10
80 39 23 25 38 33 52 30 17 -5 24 2 39 43 21 57 30 65 65 58 21 -5 33 2 62 35
31 34 37 47 37 85 0 38 4 47 24 56 37 17 75 4 81 -29 13 -60 42 -72 37 -15 -2
27 1 32 26 38 16 3 41 3 56 -1 19 -4 30 -2 39 10 15 21 44 27 137 31 79 3 84
6 95 58 8 40 41 50 86 25 29 -16 42 -18 65 -10 23 8 36 5 66 -11 34 -18 39
-19 55 -5 10 8 26 18 36 21 21 8 21 18 3 61 -13 32 -13 34 11 45 15 7 43 9 69
5 29 -4 59 -1 93 11 44 14 56 15 87 3 l37 -13 -6 -145 c-6 -147 -33 -322 -61
-408 -16 -45 -18 -47 -58 -49 -34 -2 -47 2 -70 24 -34 32 -56 25 -71 -23 -30
-99 -72 -144 -133 -144 -26 0 -44 -26 -44 -64 0 -14 -5 -28 -10 -31 -6 -4 -7
-23 -4 -44 5 -33 2 -41 -20 -58 -31 -25 -32 -28 -6 -60 11 -14 20 -39 20 -55
0 -23 4 -28 18 -24 9 2 32 7 50 11 17 4 32 8 32 11 0 2 -9 21 -20 41 -15 28
-20 57 -20 113 0 95 12 114 72 117 24 0 58 4 77 8 l34 8 -22 -22 c-11 -11 -24
-20 -28 -20 -5 1 -18 1 -29 0 -20 -1 -21 -4 -12 -43 5 -24 18 -62 29 -86 34
-69 35 -111 5 -171 -18 -35 -36 -55 -54 -61 -15 -6 -35 -15 -45 -20 -40 -23
-116 36 -104 81 4 16 1 19 -21 15 -15 -2 -33 -5 -39 -5 -7 -1 -13 -9 -13 -20
0 -10 -11 -26 -25 -35 -21 -14 -23 -20 -15 -36 8 -15 3 -29 -21 -69 -18 -28
-38 -51 -45 -51 -21 0 -24 -15 -12 -48 11 -28 10 -34 -11 -56 l-22 -24 28 -20
c22 -15 33 -18 47 -10 10 6 31 8 47 4 25 -5 29 -2 34 22 14 69 37 148 47 159
14 17 43 16 58 -2 10 -12 15 -12 36 1 34 23 58 11 49 -24 -12 -49 -47 -122
-56 -116 -5 3 -19 -16 -31 -42 -31 -64 -49 -74 -91 -51 -44 24 -107 15 -107
-15 0 -41 41 -79 52 -48 2 6 32 13 66 16 55 5 71 2 117 -21 45 -22 57 -24 68
-13 12 11 12 16 0 35 -17 26 -10 75 13 94 32 26 35 47 18 97 -27 76 -6 105 42
57 31 -32 38 -31 62 3 20 27 101 60 120 48 5 -3 10 -27 10 -53 1 -40 6 -52 30
-73 16 -14 37 -38 47 -54 15 -26 19 -27 27 -12 12 22 2 50 -14 40 -10 -6 -11
-4 -1 7 22 23 14 45 -22 64 -19 11 -33 21 -31 22 2 2 29 8 61 13 69 11 140 -7
177 -47 l23 -25 -23 -18 c-12 -10 -27 -20 -32 -22 -13 -4 3 -61 18 -66 7 -2
12 3 12 11 0 8 7 17 15 21 19 7 19 -11 1 -46 -17 -32 -5 -54 37 -64 24 -5 27
-3 27 20 0 29 14 33 54 15 44 -20 41 -66 -3 -52 -13 4 -13 3 -2 -5 8 -6 11
-17 8 -25 -3 -8 2 -22 12 -31 15 -14 82 -46 96 -46 13 0 2 43 -25 94 -16 31
-33 72 -39 90 -8 32 -7 34 18 39 14 3 29 3 32 1 4 -2 25 -34 47 -71 28 -47 40
-78 38 -99 -1 -24 5 -35 31 -55 41 -30 47 -60 6 -34 -25 17 -26 17 -18 -1 4
-11 12 -38 17 -62 l10 -43 22 30 c30 41 57 60 143 104 109 56 133 49 93 -26
-24 -44 -25 -66 -5 -73 18 -7 20 -56 3 -83 -17 -28 4 -71 35 -71 17 0 32 -12
51 -40 14 -22 26 -43 26 -46 0 -4 16 -57 36 -119 l35 -112 -26 -54 c-14 -30
-33 -70 -41 -89 l-15 -34 24 22 c13 12 26 20 29 17 5 -5 16 7 76 85 28 36 66
39 114 10 39 -23 44 -24 46 -7 0 6 4 36 8 65 4 28 4 52 2 52 -3 0 -32 -16 -64
-35 -63 -38 -88 -43 -110 -20 -31 31 -22 66 26 103 25 19 62 50 83 69 l39 35
-21 19 c-24 23 -29 69 -6 69 18 0 37 -34 30 -53 -9 -23 28 -59 65 -63 19 -2
36 -8 39 -12 3 -5 14 -11 24 -15 20 -7 23 -52 7 -106 -11 -38 -6 -51 12 -33
17 17 43 15 58 -4 11 -12 11 -27 3 -72 -6 -31 -14 -65 -18 -74 -4 -11 -3 -18
4 -18 6 0 11 6 11 14 0 20 39 66 56 66 8 0 22 -8 32 -18 27 -25 62 -44 62 -32
0 5 6 7 14 4 16 -6 39 -61 28 -68 -11 -6 -56 -1 -69 7 -7 5 -17 5 -23 2 -19
-12 -12 -36 26 -93 1 -2 32 6 68 18 36 12 72 20 81 17 24 -10 18 -41 -15 -72
-34 -33 -64 -85 -49 -85 6 0 19 5 30 10 20 11 28 -3 9 -15 -17 -10 -11 -25 8
-19 14 5 15 4 2 -5 -34 -26 -91 -51 -117 -51 -15 -1 -41 -12 -58 -25 -37 -30
-25 -33 22 -4 21 13 44 19 60 16 31 -6 55 1 48 13 -3 5 18 14 47 20 122 27
186 -10 91 -52 l-48 -21 60 -13 c56 -11 62 -10 82 8 39 36 55 -4 33 -81 -12
-42 -24 -50 -75 -52 l-40 -2 40 -6 c57 -10 224 -93 263 -131 39 -39 40 -53 5
-66 l-28 -10 42 -27 c36 -23 46 -25 63 -15 16 10 27 8 67 -13 49 -27 67 -58
56 -100 -6 -20 -14 -21 -56 -4 -10 4 -17 4 -16 -1 3 -19 -2 -33 -15 -47 -13
-13 -10 -17 22 -38 20 -13 41 -34 47 -46 5 -13 13 -23 17 -23 4 0 14 -13 22
-29 13 -24 13 -31 2 -47 -12 -16 -18 -17 -40 -6 -37 16 -39 16 -32 -12 5 -21
3 -24 -27 -23 -17 0 -39 -3 -48 -7 -28 -12 -30 30 -3 59 28 30 29 35 11 35
-17 0 -56 -44 -78 -87 -17 -33 -17 -33 8 -33 36 0 60 -16 67 -45 5 -19 12 -25
24 -21 9 2 36 7 59 11 37 6 45 3 65 -18 17 -18 41 -27 96 -37 39 -6 72 -16 72
-21 0 -4 -8 -6 -17 -3 -10 3 -1 -5 19 -18 21 -13 38 -29 38 -35 0 -9 20 -13
64 -13 82 0 97 -6 90 -35 -7 -29 15 -38 51 -19 15 8 37 14 50 14 26 0 55 -29
55 -55 0 -28 13 -9 31 47 14 41 14 50 3 55 -16 6 -19 33 -4 33 6 0 10 5 10 12
0 9 -3 9 -12 0 -7 -7 -16 -12 -20 -12 -15 0 -8 21 17 47 35 39 21 42 -18 5
-37 -36 -53 -39 -77 -17 -16 14 -18 14 -24 0 -3 -9 -2 -13 4 -10 14 9 12 -7
-4 -28 -14 -18 -14 -18 -20 1 -9 27 -36 37 -29 11 11 -39 -15 -17 -35 31 -18
43 -19 50 -5 50 9 0 13 -6 9 -15 -4 -11 1 -15 17 -15 15 0 18 3 9 8 -14 10
-12 61 3 59 5 -1 9 4 7 11 -1 6 3 12 8 12 6 0 10 -6 8 -12 -1 -7 5 -26 13 -41
l15 -29 27 41 c15 22 27 50 27 61 0 11 5 20 10 20 6 0 10 5 10 10 0 6 -6 10
-14 10 -16 0 -29 58 -21 93 5 19 12 23 32 21 29 -3 29 -2 38 -34 6 -20 5 -23
-6 -12 -7 6 -20 12 -28 11 -10 0 -7 -4 7 -10 13 -5 20 -14 17 -20 -4 -6 2 -5
14 3 12 7 21 16 21 19 0 4 15 17 33 29 17 12 25 20 17 17 -22 -6 -35 13 -37
54 -1 36 -1 36 30 29 62 -15 68 -21 65 -55 -1 -18 4 -40 11 -48 18 -22 7 -50
-50 -129 -38 -53 -45 -69 -35 -77 16 -13 69 -5 112 16 l31 16 2 274 c0 151 -2
273 -6 271 -5 -2 -34 -17 -65 -33 -46 -23 -60 -27 -70 -17 -10 10 -10 17 0 32
17 28 15 33 -12 26 -27 -7 -40 12 -25 35 5 8 9 28 9 45 0 34 41 79 127 139
l43 30 0 97 c0 96 -12 135 -25 78 -4 -16 -10 -30 -15 -30 -5 0 -11 -10 -13
-23 -3 -12 -5 -7 -4 13 1 19 -2 41 -7 48 -4 6 -5 16 -2 21 3 5 -3 11 -14 14
-18 5 -20 14 -20 96 l0 91 50 55 c49 54 50 57 50 117 0 44 -4 64 -16 73 -15
11 -15 14 0 43 22 42 21 55 -3 40 -17 -10 -24 -9 -41 7 -17 15 -21 28 -18 58
3 31 1 36 -12 31 -8 -4 -26 -7 -40 -8 -34 -1 -38 32 -10 96 12 27 19 52 17 54
-2 3 -27 -1 -56 -7 -28 -6 -57 -9 -64 -6 -17 6 -41 107 -28 120 5 5 23 9 42
10 18 1 34 7 36 12 2 6 -29 43 -69 83 -40 39 -79 78 -86 85 -7 7 -33 56 -56
108 -40 88 -111 205 -222 363 l-48 68 28 25 c26 22 28 27 25 96 -2 40 -9 92
-16 117 -14 47 -9 115 9 126 6 4 30 9 53 10 46 4 58 -4 91 -66 10 -19 26 -44
35 -55 20 -23 49 -106 49 -138 0 -17 12 -28 49 -45 27 -12 54 -22 60 -22 14 0
15 37 1 45 -5 3 -10 21 -11 38 0 18 -4 41 -8 51 -19 49 28 108 69 86 16 -8 20
-8 20 4 0 10 6 13 16 9 14 -5 14 -3 -2 15 -9 12 -22 18 -28 15 -6 -3 -8 -3 -4
2 4 4 1 20 -7 35 -11 22 -12 29 -2 33 8 3 4 13 -12 31 l-24 26 45 0 c52 0 71
-12 171 -109 l67 -65 0 457 0 457 -842 0 -843 0 -17 -35 c-10 -19 -13 -37 -8
-40 5 -3 72 -4 150 -3 118 1 143 -1 157 -15 15 -15 15 -18 0 -41 -25 -38 -22
-41 36 -40 67 2 117 -6 117 -18 0 -22 -46 -47 -88 -48 -56 0 -52 -25 4 -26 21
0 45 -2 52 -2 20 -3 14 -19 -10 -25 -37 -10 -55 -30 -62 -69 l-7 -38 47 0 c55
0 78 20 89 78 10 57 31 74 79 67 40 -6 41 -5 58 35 10 25 23 40 30 38 7 -2 22
-33 34 -69 11 -35 25 -62 30 -60 5 2 17 17 26 32 10 16 23 29 29 29 13 0 77
-66 112 -115 l22 -30 -30 22 c-17 11 -41 33 -54 47 -59 63 -51 -7 12 -97 28
-41 12 -46 -27 -8 -19 18 -39 30 -45 27 -6 -4 -11 -29 -11 -55 0 -62 -18 -88
-50 -71 -19 10 -25 9 -43 -9 -19 -19 -21 -19 -33 -3 -12 16 -13 16 -14 0 0 -9
9 -20 20 -23 11 -3 20 -13 20 -21 0 -20 -29 -17 -37 4 -3 9 -12 24 -20 34 -13
14 -18 14 -41 2 -38 -20 -47 -18 -85 15 -39 35 -62 29 -51 -14 7 -27 6 -27
-12 -14 -24 17 -39 30 -121 105 -64 58 -79 94 -48 111 20 11 6 30 -29 39 -26
6 -29 5 -23 -15 3 -11 1 -19 -3 -16 -5 3 -10 0 -12 -6 -5 -16 -118 79 -203
171 -26 29 -27 31 -7 20 30 -15 35 -9 23 22 -9 25 -35 38 -76 38 -12 0 -38 18
-59 39 l-39 40 39 4 c22 2 -607 3 -1396 3 l-1435 -1 -30 -21 c-16 -12 -75 -45
-130 -73 -55 -29 -120 -65 -145 -81 -25 -16 -58 -37 -75 -46 -16 -9 -53 -34
-82 -55 -29 -22 -58 -39 -65 -39 -7 0 -39 -19 -71 -43 -32 -24 -79 -51 -105
-60 -26 -10 -60 -29 -74 -42 -15 -14 -44 -34 -65 -45 -58 -32 -165 -109 -180
-129 -15 -22 -93 -65 -101 -56 -7 6 123 126 182 168 23 16 57 44 76 62 19 18
51 41 71 52 19 10 53 36 75 57 21 21 53 45 69 53 17 9 63 38 102 65 40 26 83
52 95 57 13 5 51 27 86 50 34 23 103 62 154 86 l92 45 -1242 0 -1242 0 0
-2205z m6571 2092 c4 -16 10 -70 14 -120 10 -149 16 -160 59 -110 16 18 28 24
41 19 16 -6 17 -17 13 -111 -3 -57 -2 -108 1 -112 3 -5 20 -13 36 -18 19 -7
42 -29 63 -60 19 -28 38 -51 43 -53 5 -2 9 28 9 67 0 56 3 73 16 78 22 8 33
-7 50 -72 21 -81 45 -218 39 -224 -3 -3 -12 5 -21 17 -8 12 -21 22 -28 22 -8
0 -19 7 -26 15 -10 13 -15 13 -21 3 -6 -9 -13 -6 -28 11 -12 13 -21 28 -21 33
0 4 -6 8 -12 8 -7 0 -27 28 -44 62 -44 89 -58 88 -49 -5 7 -70 6 -76 -14 -86
-19 -10 -26 -7 -61 31 -48 51 -56 75 -41 121 13 39 5 113 -15 130 -7 7 -26 23
-42 35 -26 21 -29 29 -25 67 3 23 -2 72 -11 108 -18 72 -14 106 17 150 23 34
48 32 58 -6z m-163 -449 c5 -7 11 -22 13 -33 3 -11 15 -22 29 -25 14 -3 26
-14 28 -25 8 -56 13 -63 67 -90 60 -29 84 -58 66 -79 -6 -7 -9 -15 -7 -17 2
-2 -10 -5 -27 -6 -18 -2 -33 -7 -35 -13 -2 -6 -8 -8 -12 -5 -5 3 -5 -9 1 -27
5 -18 9 -49 9 -69 0 -20 7 -42 15 -49 21 -18 19 -29 -5 -23 -14 4 -20 0 -20
-11 0 -9 -6 -16 -12 -16 -17 0 -78 75 -78 95 0 23 24 67 49 89 12 11 21 23 21
28 0 14 -27 38 -42 38 -18 0 -69 -95 -62 -115 11 -27 -11 -16 -56 30 l-43 44
51 102 c50 101 50 102 31 122 -22 24 -26 67 -5 67 7 0 18 -6 24 -12z m-58 -35
c-8 -3 -22 -12 -31 -20 -14 -12 -17 -11 -22 7 -4 17 -1 20 31 19 21 0 30 -3
22 -6z m-140 -24 c0 -6 -4 -7 -10 -4 -5 3 -10 11 -10 16 0 6 5 7 10 4 6 -3 10
-11 10 -16z m-2446 -770 c-3 -5 -14 -9 -25 -9 -10 0 -19 4 -19 9 0 5 11 9 25
9 13 0 22 -4 19 -9z m921 2 c22 -5 31 -10 20 -11 -11 -1 -31 -4 -45 -7 -49 -8
-183 -12 -176 -5 10 10 95 29 131 30 17 1 48 -3 70 -7z m445 -321 c0 -11 -4
-20 -10 -20 -5 0 -10 9 -10 20 0 11 5 20 10 20 6 0 10 -9 10 -20z m53 -212
c40 -21 47 -40 24 -60 -13 -12 -28 -16 -41 -12 -36 11 -76 34 -76 43 0 5 -3
16 -6 25 -5 13 2 16 36 16 23 0 51 -5 63 -12z m124 -90 c17 -14 34 -66 22 -73
-5 -4 -9 -16 -9 -29 0 -26 -55 -116 -70 -116 -6 0 -8 5 -5 10 3 6 -1 13 -9 16
-9 3 -13 10 -10 15 3 5 -2 9 -10 9 -28 0 -30 40 -3 68 19 21 24 34 20 60 -9
55 29 76 74 40z m-97 2 c0 -5 -2 -10 -4 -10 -3 0 -8 5 -11 10 -3 6 -1 10 4 10
6 0 11 -4 11 -10z m1886 -98 c13 -48 -9 -55 -26 -9 -13 39 -13 47 3 47 7 0 17
-17 23 -38z m-1778 -162 c2 -20 1 -22 -7 -10 -6 8 -18 15 -27 15 -10 0 -19 6
-22 13 -3 10 4 13 24 10 22 -2 30 -9 32 -28z m1872 6 c0 -3 -4 -8 -10 -11 -5
-3 -10 -1 -10 4 0 6 5 11 10 11 6 0 10 -2 10 -4z m-40 -196 c0 -5 -7 -10 -16
-10 -8 0 -12 5 -9 10 3 6 10 10 16 10 5 0 9 -4 9 -10z m-1244 -45 c-22 -17
-36 -19 -36 -7 0 14 12 22 34 22 21 -1 21 -1 2 -15z m1248 -82 c3 -10 8 -53
12 -96 5 -68 4 -81 -12 -99 -17 -20 -17 -21 -1 -15 9 4 17 3 17 -2 0 -16 -13
-21 -27 -10 -15 13 -19 239 -4 239 5 0 12 -8 15 -17z m-942 -205 c-21 -26 -82
-52 -93 -41 -11 11 -2 40 13 43 4 0 22 7 40 15 36 15 59 5 40 -17z m-4698 -24
c10 -25 -1 -29 -14 -5 -6 12 -7 21 -1 21 5 0 12 -7 15 -16z m-172 -196 c-6 -6
-15 -8 -19 -4 -4 4 -1 11 7 16 19 12 27 3 12 -12z m5798 -48 c0 -5 -5 -10 -11
-10 -5 0 -7 5 -4 10 3 6 8 10 11 10 2 0 4 -4 4 -10z m-5728 -127 c89 -39 16
-80 -194 -108 -49 -6 -54 -3 -48 34 4 34 111 89 174 90 16 1 47 -7 68 -16z
m-48 -238 c-4 -8 -1 -15 5 -15 6 0 11 -9 11 -20 0 -19 13 -25 50 -22 24 2 112
-28 159 -55 28 -16 46 -22 50 -15 4 7 12 8 21 2 13 -8 12 -10 -2 -10 -10 0
-19 -4 -19 -10 -2 -11 -5 -25 -9 -37 -1 -5 -2 -12 -1 -16 1 -5 -8 -11 -19 -14
-11 -3 -17 -9 -14 -14 9 -15 -21 -10 -68 10 -24 10 -81 26 -126 36 -89 19
-132 44 -132 76 0 11 11 24 25 31 26 12 31 23 15 33 -17 11 -11 27 8 21 16 -6
16 -5 0 7 -22 17 -13 27 23 27 21 0 27 -4 23 -15z m311 -57 c12 -18 12 -24 3
-27 -7 -2 -21 -10 -30 -18 -15 -13 -20 -12 -50 9 -18 12 -35 24 -38 26 -3 2 4
10 14 18 31 22 82 18 101 -8z m4962 -82 c-4 -9 -17 -16 -29 -15 -13 0 -17 3
-10 6 6 2 9 9 6 15 -9 13 18 30 30 18 5 -5 6 -16 3 -24z m-5167 -90 c0 -2 -8
-10 -17 -17 -16 -13 -17 -12 -4 4 13 16 21 21 21 13z m5475 -96 c-3 -5 -11
-10 -16 -10 -6 0 -7 5 -4 10 3 6 11 10 16 10 6 0 7 -4 4 -10z m-5550 -366 c17
-13 18 -16 5 -24 -8 -5 -26 -9 -40 -8 -14 1 -31 -1 -38 -6 -7 -4 -12 -2 -12 3
0 6 5 11 11 11 8 0 9 4 0 13 -6 8 -8 17 -4 20 11 12 57 7 78 -9z"/>
<path d="M1408 1193 c7 -3 16 -2 19 1 4 3 -2 6 -13 5 -11 0 -14 -3 -6 -6z"/>
<path d="M6172 3971 c-12 -33 -2 -54 21 -45 17 6 22 30 11 58 -9 24 -21 19
-32 -13z"/>
<path d="M7131 3370 c12 -41 24 -83 26 -92 3 -10 14 -18 23 -18 24 0 31 -26
21 -72 -10 -42 -6 -51 18 -38 9 4 31 14 49 20 l32 12 0 114 c0 90 -3 112 -13
108 -8 -3 -26 0 -41 6 -27 10 -27 10 -20 -25 6 -31 4 -35 -12 -29 -11 4 -38
25 -61 47 l-43 41 21 -74z"/>
<path d="M6794 3255 c-1 -82 -1 -85 18 -73 11 7 27 25 36 40 15 26 15 28 -5
50 -11 13 -24 33 -28 46 -13 43 -20 21 -21 -63z"/>
<path d="M7015 3225 c-3 -8 -7 -22 -10 -31 -6 -19 13 -46 26 -38 5 3 9 -2 9
-10 0 -9 -7 -16 -15 -16 -16 0 -36 -39 -28 -53 3 -5 13 -1 22 7 10 9 22 16 27
16 6 0 18 6 29 13 17 13 17 16 -11 70 -29 58 -41 68 -49 42z"/>
<path d="M2414 3195 c-18 -14 -18 -14 6 -15 35 0 70 11 70 21 0 14 -55 10 -76
-6z"/>
<path d="M6864 3086 c-20 -32 -34 -166 -16 -166 11 0 47 161 40 181 -3 9 -11
4 -24 -15z"/>
<path d="M2137 3064 c-11 -12 37 -86 61 -95 30 -12 42 -11 42 1 0 6 -6 10 -12
10 -7 0 -26 11 -42 24 l-30 23 22 12 c13 7 20 16 17 22 -7 10 -48 12 -58 3z"/>
<path d="M7263 3044 c-40 -31 -42 -47 -5 -38 36 9 44 17 40 43 -3 20 -4 20
-35 -5z"/>
<path d="M7287 2916 c-4 -10 -5 -21 -2 -24 9 -9 17 6 13 25 -3 17 -4 17 -11
-1z"/>
<path d="M7118 2840 c-13 -3 -24 -14 -26 -23 -4 -19 18 -23 35 -6 18 18 41 3
45 -27 2 -17 11 -30 26 -35 19 -7 24 -4 32 16 11 30 40 33 47 5 9 -32 23 -23
23 15 0 28 -4 35 -19 35 -11 0 -21 6 -24 13 -4 12 -94 17 -139 7z"/>
<path d="M2159 2754 c-14 -7 -33 -22 -43 -33 -16 -18 -16 -21 -1 -51 23 -44
45 -35 62 23 8 26 20 50 28 54 8 3 15 9 15 14 0 13 -30 9 -61 -7z"/>
<path d="M1964 2695 c-7 -17 4 -37 17 -30 12 8 12 45 -1 45 -6 0 -13 -7 -16
-15z"/>
<path d="M7148 2644 c-4 -3 7 -24 24 -45 28 -35 30 -42 19 -65 -10 -23 -9 -29
8 -45 18 -17 20 -17 33 -1 38 47 68 101 68 125 0 26 -2 27 -52 27 -29 0 -62 3
-73 6 -11 3 -24 2 -27 -2z"/>
<path d="M3280 2620 c0 -5 5 -10 10 -10 6 0 10 5 10 10 0 6 -4 10 -10 10 -5 0
-10 -4 -10 -10z"/>
<path d="M4260 2596 c0 -9 5 -16 10 -16 6 0 10 4 10 9 0 6 -4 13 -10 16 -5 3
-10 -1 -10 -9z"/>
<path d="M3950 2510 c0 -5 5 -10 11 -10 5 0 7 5 4 10 -3 6 -8 10 -11 10 -2 0
-4 -4 -4 -10z"/>
<path d="M4020 2460 c0 -13 5 -18 14 -14 8 3 12 12 9 20 -8 21 -23 17 -23 -6z"/>
<path d="M4525 2420 c-3 -5 3 -10 15 -10 12 0 18 5 15 10 -3 6 -10 10 -15 10
-5 0 -12 -4 -15 -10z"/>
<path d="M4953 2409 c-36 -23 -39 -29 -22 -46 16 -16 4 -30 -31 -38 -33 -7
-39 -19 -14 -29 22 -8 11 -19 -23 -22 -23 -3 -48 -23 -38 -32 2 -2 18 -7 37
-11 18 -5 44 -11 56 -15 21 -7 23 -5 22 16 -5 55 2 79 30 110 17 18 30 36 30
40 0 5 11 8 24 8 19 0 24 5 23 20 -1 23 -8 25 -25 8 -9 -9 -12 -9 -12 0 0 18
-21 14 -57 -9z"/>
<path d="M4023 2413 c-7 -3 -13 -15 -13 -27 0 -31 24 -61 43 -53 13 5 13 11 3
41 -14 42 -17 45 -33 39z"/>
<path d="M4676 2402 c6 -4 14 -14 17 -22 4 -10 6 -8 6 8 1 15 -5 22 -16 22
-11 0 -14 -3 -7 -8z"/>
<path d="M2185 2330 c3 -5 8 -10 11 -10 2 0 4 5 4 10 0 6 -5 10 -11 10 -5 0
-7 -4 -4 -10z"/>
<path d="M1635 2230 c-8 -16 -15 -34 -15 -40 0 -19 30 -10 56 15 21 21 23 29
14 40 -19 23 -38 18 -55 -15z"/>
<path d="M4790 2250 c0 -5 5 -10 10 -10 6 0 10 5 10 10 0 6 -4 10 -10 10 -5 0
-10 -4 -10 -10z"/>
<path d="M5048 2253 c-9 -15 13 -74 25 -70 7 2 10 12 9 23 -5 24 -29 58 -34
47z"/>
<path d="M3980 2236 c0 -9 7 -16 16 -16 9 0 14 5 12 12 -6 18 -28 21 -28 4z"/>
<path d="M4433 2203 c-23 -9 -14 -20 12 -15 14 2 22 8 19 13 -6 10 -12 10 -31
2z"/>
<path d="M3850 2160 c0 -5 5 -10 10 -10 6 0 10 5 10 10 0 6 -4 10 -10 10 -5 0
-10 -4 -10 -10z"/>
<path d="M4185 2140 c3 -5 8 -10 11 -10 2 0 4 5 4 10 0 6 -5 10 -11 10 -5 0
-7 -4 -4 -10z"/>
<path d="M4945 2129 c-4 -6 -5 -13 -2 -16 7 -7 27 6 27 18 0 12 -17 12 -25 -2z"/>
<path d="M5087 2048 c-3 -18 -9 -46 -13 -62 -5 -19 -3 -27 4 -22 7 4 9 -8 6
-36 -2 -24 -1 -36 2 -28 3 8 20 44 37 79 33 68 30 93 -10 99 -16 2 -22 -4 -26
-30z"/>
<path d="M4771 2031 c-40 -26 -41 -29 -20 -33 13 -3 32 -9 41 -13 13 -5 21 2
32 30 9 21 16 39 16 41 0 11 -30 0 -69 -25z"/>
<path d="M4400 1970 c-12 -8 -12 -10 5 -10 11 0 27 5 35 10 12 8 12 10 -5 10
-11 0 -27 -5 -35 -10z"/>
<path d="M3681 1927 c-9 -12 -8 -16 5 -21 22 -8 28 -1 17 19 -8 14 -11 14 -22
2z"/>
<path d="M3167 1916 c-4 -10 -5 -21 -2 -24 9 -9 17 6 13 25 -3 17 -4 17 -11
-1z"/>
<path d="M1715 1890 c9 -16 18 -30 20 -30 3 0 5 14 5 30 0 23 -4 30 -20 30
-20 0 -20 -1 -5 -30z"/>
<path d="M3576 1872 c-3 -5 8 -22 24 -37 20 -19 28 -35 24 -47 -6 -19 11 -23
54 -12 30 8 28 20 -5 29 -15 3 -42 22 -59 41 -18 19 -35 30 -38 26z"/>
<path d="M5511 1854 c0 -11 3 -14 6 -6 3 7 2 16 -1 19 -3 4 -6 -2 -5 -13z"/>
<path d="M3536 1837 c-23 -17 -18 -60 8 -65 29 -6 38 11 23 46 -12 28 -15 30
-31 19z"/>
<path d="M4480 1810 c0 -5 5 -10 10 -10 6 0 10 5 10 10 0 6 -4 10 -10 10 -5 0
-10 -4 -10 -10z"/>
<path d="M5560 1788 c0 -32 27 -64 60 -73 22 -5 23 -4 9 7 -9 7 -28 31 -43 52
-24 36 -26 37 -26 14z"/>
<path d="M7282 1787 c-12 -14 -4 -137 9 -137 5 0 9 34 9 75 0 41 -2 75 -4 75
-2 0 -8 -6 -14 -13z"/>
<path d="M3135 1770 c11 -14 21 -27 22 -29 1 -2 1 6 0 17 0 12 -3 19 -6 17 -2
-3 -11 1 -20 7 -10 8 -8 3 4 -12z"/>
<path d="M3186 1779 c3 -5 -1 -9 -8 -10 -15 -1 41 -28 59 -29 22 0 3 26 -27
37 -17 6 -28 7 -24 2z"/>
<path d="M3935 1780 c3 -5 11 -10 16 -10 6 0 7 5 4 10 -3 6 -11 10 -16 10 -6
0 -7 -4 -4 -10z"/>
<path d="M1788 1768 c-1 -7 -2 -30 -2 -51 -1 -31 3 -39 22 -44 30 -7 72 4 72
20 0 18 -90 91 -92 75z"/>
<path d="M1990 1765 c7 -8 20 -15 29 -15 13 1 13 3 -3 15 -26 19 -42 19 -26 0z"/>
<path d="M4988 1752 c-24 -5 -23 -32 0 -32 10 0 27 -6 37 -14 16 -12 17 -16 6
-30 -11 -13 -11 -17 3 -22 24 -9 28 -1 16 31 -16 42 -43 71 -62 67z"/>
<path d="M3162 1656 c1 -10 8 -17 13 -17 15 1 12 24 -3 29 -9 3 -13 -2 -10
-12z"/>
<path d="M3725 1660 c3 -5 8 -10 11 -10 2 0 4 5 4 10 0 6 -5 10 -11 10 -5 0
-7 -4 -4 -10z"/>
<path d="M1238 1653 c7 -3 16 -2 19 1 4 3 -2 6 -13 5 -11 0 -14 -3 -6 -6z"/>
<path d="M5445 1639 c-13 -21 17 -39 64 -38 l46 0 -35 16 c-19 8 -43 19 -52
24 -10 5 -20 5 -23 -2z"/>
<path d="M4477 1625 c-4 -8 -3 -16 1 -19 4 -3 9 4 9 15 2 23 -3 25 -10 4z"/>
<path d="M5758 1586 c-32 -11 -37 -26 -9 -26 17 0 49 27 40 33 -2 2 -16 -1
-31 -7z"/>
<path d="M5545 1580 c-6 -9 7 -14 31 -11 6 1 17 -6 24 -14 7 -8 19 -15 28 -15
10 0 7 8 -12 25 -28 26 -60 33 -71 15z"/>
<path d="M4144 1559 c-4 -7 -3 -10 4 -5 6 3 13 2 17 -4 3 -5 0 -10 -7 -10 -10
0 -10 -2 0 -9 18 -11 -32 -24 -59 -16 -14 5 -19 1 -19 -14 0 -11 -4 -23 -10
-26 -17 -11 -11 -25 11 -25 12 0 34 -11 49 -24 20 -16 37 -22 55 -18 19 3 23
8 16 15 -6 6 -11 19 -11 29 0 15 3 17 19 8 29 -15 43 -12 39 8 -2 12 -11 16
-30 14 -19 -2 -28 2 -33 17 -3 12 -4 25 -1 30 3 4 -3 16 -13 25 -14 13 -21 14
-27 5z"/>
<path d="M3357 1519 c-3 -13 -1 -19 6 -16 15 5 22 37 9 37 -5 0 -12 -9 -15
-21z"/>
<path d="M5346 1515 c-3 -9 0 -15 9 -15 8 0 15 7 15 15 0 8 -4 15 -9 15 -5 0
-11 -7 -15 -15z"/>
<path d="M3720 1510 c0 -5 5 -10 11 -10 5 0 7 5 4 10 -3 6 -8 10 -11 10 -2 0
-4 -4 -4 -10z"/>
<path d="M4190 1511 c0 -5 7 -12 16 -15 14 -5 15 -4 4 9 -14 17 -20 19 -20 6z"/>
<path d="M4708 1486 c12 -16 22 -37 22 -47 0 -25 12 -24 38 4 24 26 18 41 -20
50 -14 4 -34 10 -44 14 -16 6 -15 3 4 -21z"/>
<path d="M5855 1470 c-3 -5 -1 -10 4 -10 6 0 11 5 11 10 0 6 -2 10 -4 10 -3 0
-8 -4 -11 -10z"/>
<path d="M2605 1460 c3 -5 8 -10 11 -10 2 0 4 5 4 10 0 6 -5 10 -11 10 -5 0
-7 -4 -4 -10z"/>
<path d="M4927 1449 c-19 -11 -51 -68 -43 -77 3 -3 6 -1 6 5 0 6 14 25 30 43
33 35 35 44 7 29z"/>
<path d="M5861 1434 c12 -15 11 -16 -7 -10 -14 4 -26 1 -34 -9 -15 -18 -14
-20 25 -29 22 -5 26 -4 15 4 -12 8 -10 10 10 10 18 0 21 3 12 9 -8 4 -13 11
-13 15 3 19 0 26 -10 26 -8 0 -7 -6 2 -16z"/>
<path d="M3295 1416 c-32 -48 17 -74 75 -41 l25 14 -30 1 c-35 0 -56 16 -48
36 8 22 -5 16 -22 -10z"/>
<path d="M5365 1410 c-27 -4 -46 -8 -41 -8 5 -1 3 -8 -3 -16 -10 -12 -6 -12
26 0 21 7 53 13 71 14 20 0 31 4 27 10 -3 6 -12 9 -18 8 -7 0 -34 -4 -62 -8z"/>
<path d="M4605 1400 c3 -5 8 -10 11 -10 2 0 4 5 4 10 0 6 -5 10 -11 10 -5 0
-7 -4 -4 -10z"/>
<path d="M1722 1377 c7 -12 11 -25 10 -28 -1 -4 8 -5 18 -2 27 7 25 15 -10 35
-30 17 -30 17 -18 -5z"/>
<path d="M2065 1356 c0 -23 -3 -60 -8 -84 -5 -29 -4 -41 3 -37 5 3 10 14 10
24 0 10 9 30 21 44 30 40 30 78 -1 87 -24 7 -25 5 -25 -34z"/>
<path d="M2869 1383 c-13 -16 -12 -17 4 -4 16 13 21 21 13 21 -2 0 -10 -8 -17
-17z"/>
<path d="M4616 1372 c-3 -6 -1 -14 5 -17 15 -10 25 3 12 16 -7 7 -13 7 -17 1z"/>
<path d="M5280 1356 c0 -9 5 -16 10 -16 6 0 10 4 10 9 0 6 -4 13 -10 16 -5 3
-10 -1 -10 -9z"/>
<path d="M1865 1350 c-4 -6 -11 -8 -16 -5 -17 11 -31 -6 -17 -22 11 -14 10
-15 -9 -9 -19 6 -25 1 -43 -33 -24 -48 -25 -55 -5 -47 12 4 13 2 6 -13 -6 -10
-8 -21 -5 -24 7 -7 67 102 67 121 0 6 8 12 18 12 21 0 34 16 20 24 -5 4 -12 2
-16 -4z"/>
<path d="M4572 1333 c-21 -15 -22 -17 -6 -34 24 -27 31 -24 36 16 4 39 2 41
-30 18z"/>
<path d="M5896 1323 c4 -16 2 -28 -7 -33 -10 -7 -6 -12 16 -20 23 -9 31 -8 34
1 2 7 14 23 27 36 26 26 23 28 -39 37 -36 5 -37 4 -31 -21z"/>
<path d="M1678 1333 c6 -2 18 -2 25 0 6 3 1 5 -13 5 -14 0 -19 -2 -12 -5z"/>
<path d="M2415 1325 c-5 -11 -10 -24 -13 -30 -3 -5 3 -3 13 7 9 9 15 22 12 30
-3 9 -7 7 -12 -7z"/>
<path d="M4080 1325 c0 -2 9 -9 20 -15 16 -9 20 -8 20 5 0 8 -9 15 -20 15 -11
0 -20 -2 -20 -5z"/>
<path d="M5486 1322 c-9 -16 11 -52 29 -52 20 0 19 13 -3 41 -13 15 -21 18
-26 11z"/>
<path d="M5303 1286 c0 -9 14 -13 38 -13 54 0 57 22 4 24 -28 1 -42 -3 -42
-11z"/>
<path d="M2257 1225 c-8 -27 -11 -48 -5 -51 5 -3 11 -4 12 -3 5 6 16 99 12 99
-2 0 -10 -20 -19 -45z"/>
<path d="M2141 1234 c0 -11 3 -14 6 -6 3 7 2 16 -1 19 -3 4 -6 -2 -5 -13z"/>
<path d="M4181 1231 c-8 -5 -20 -7 -27 -4 -6 2 -15 0 -19 -6 -3 -6 -19 -11
-36 -11 -16 0 -29 -4 -29 -10 0 -5 17 -10 39 -10 21 0 67 -3 102 -6 59 -5 63
-4 45 10 -22 18 -40 21 -31 6 3 -5 2 -10 -2 -10 -5 0 -13 11 -19 25 -6 18 -13
22 -23 16z"/>
<path d="M5390 1210 c0 -5 5 -10 10 -10 6 0 10 5 10 10 0 6 -4 10 -10 10 -5 0
-10 -4 -10 -10z"/>
<path d="M6040 1212 c0 -6 -3 -17 -6 -25 -4 -11 4 -16 28 -20 18 -2 64 -14
103 -25 38 -11 71 -19 72 -18 3 3 -84 48 -142 73 -22 9 -43 19 -47 21 -5 2 -8
-1 -8 -6z"/>
<path d="M1706 1169 c-36 -38 -37 -41 -19 -54 30 -24 43 -18 37 15 -7 33 -3
35 27 20 28 -15 36 13 12 39 -19 20 -19 20 -57 -20z"/>
<path d="M5860 1181 c-21 -6 -22 -8 -7 -14 21 -8 77 2 77 14 0 10 -34 10 -70
0z"/>
<path d="M5626 1139 c-9 -46 -8 -49 15 -49 19 0 21 4 15 31 -3 17 -6 35 -6 40
0 23 -18 6 -24 -22z"/>
<path d="M4910 1146 c0 -8 5 -18 10 -21 6 -3 10 1 10 9 0 8 -4 18 -10 21 -5 3
-10 -1 -10 -9z"/>
<path d="M5295 1110 c-3 -5 -1 -10 4 -10 6 0 11 5 11 10 0 6 -2 10 -4 10 -3 0
-8 -4 -11 -10z"/>
<path d="M3480 1081 c0 -14 18 -23 31 -15 8 4 7 9 -2 15 -18 11 -29 11 -29 0z"/>
<path d="M4120 1045 c22 -23 25 -24 42 -8 22 20 23 27 3 19 -8 -3 -15 -1 -15
4 0 6 -12 10 -27 10 l-26 0 23 -25z"/>
<path d="M3398 1010 c-4 -49 18 -55 44 -11 14 26 14 29 1 24 -9 -4 -21 1 -28
11 -11 15 -13 12 -17 -24z"/>
<path d="M6250 1027 c-14 -7 -37 -20 -50 -31 l-25 -18 25 7 c14 4 52 6 84 5
l59 -1 -30 25 c-17 14 -32 26 -34 25 -2 0 -15 -6 -29 -12z"/>
<path d="M5425 1021 c-6 -11 9 -23 19 -14 9 9 7 23 -3 23 -6 0 -12 -4 -16 -9z"/>
<path d="M2286 998 c-8 -32 -7 -40 4 -33 5 3 26 2 45 -4 49 -13 45 8 -7 42
-34 22 -34 22 -42 -5z"/>
<path d="M3961 996 c-9 -11 -8 -15 5 -20 23 -9 24 -8 17 11 -5 12 -3 14 7 8 9
-5 11 -4 6 3 -10 16 -21 15 -35 -2z"/>
<path d="M3160 985 c-7 -9 -11 -18 -8 -20 3 -3 11 1 18 10 7 9 11 18 8 20 -3
3 -11 -1 -18 -10z"/>
<path d="M5500 994 c0 -3 5 -14 11 -25 10 -20 11 -20 24 -2 20 26 18 33 -10
33 -14 0 -25 -3 -25 -6z"/>
<path d="M4013 966 c-6 -8 -9 -17 -6 -20 7 -7 33 13 33 25 0 13 -13 10 -27 -5z"/>
<path d="M3576 956 l-29 -13 39 -7 c22 -3 49 -9 62 -12 16 -5 22 -2 22 10 0 9
-8 16 -19 16 -11 0 -23 5 -26 10 -8 12 -12 12 -49 -4z"/>
<path d="M3518 953 c7 -3 16 -2 19 1 4 3 -2 6 -13 5 -11 0 -14 -3 -6 -6z"/>
<path d="M2278 943 c7 -3 16 -2 19 1 4 3 -2 6 -13 5 -11 0 -14 -3 -6 -6z"/>
<path d="M6026 905 c28 -37 44 -44 44 -20 0 8 -7 15 -15 15 -8 0 -19 9 -25 20
-6 11 -15 20 -21 20 -5 0 2 -16 17 -35z"/>
<path d="M4102 896 c-15 -40 -15 -46 -2 -46 6 0 10 10 10 23 0 13 5 28 11 34
6 6 7 13 2 16 -5 3 -15 -9 -21 -27z"/>
<path d="M3202 887 c-9 -11 -8 -18 8 -32 19 -17 20 -17 20 1 0 10 -4 25 -9 32
-6 10 -10 10 -19 -1z"/>
<path d="M3346 884 c-4 -9 -1 -22 4 -30 9 -10 15 -10 29 4 16 15 17 18 3 30
-21 16 -29 15 -36 -4z"/>
<path d="M3040 880 c0 -5 5 -10 11 -10 5 0 7 5 4 10 -3 6 -8 10 -11 10 -2 0
-4 -4 -4 -10z"/>
<path d="M4518 843 c-8 -17 -26 -32 -45 -38 -49 -16 -51 -25 -4 -25 35 0 44
-4 48 -20 5 -19 6 -19 19 6 8 14 11 31 7 37 -4 6 -6 24 -5 39 3 35 -3 35 -20
1z"/>
<path d="M5900 847 c0 -8 21 -34 48 -56 34 -30 56 -41 80 -41 44 0 41 17 -5
26 -22 4 -53 22 -80 47 -28 26 -43 34 -43 24z"/>
<path d="M4920 820 c-8 -15 -7 -26 6 -44 8 -14 12 -31 8 -38 -5 -10 -4 -10 6
-1 11 10 11 17 0 37 -7 14 -10 34 -7 45 7 27 1 27 -13 1z"/>
<path d="M3705 790 c10 -11 20 -20 22 -20 2 0 -1 9 -7 20 -6 11 -16 20 -22 20
-6 0 -3 -9 7 -20z"/>
<path d="M4328 763 c6 -2 18 -2 25 0 6 3 1 5 -13 5 -14 0 -19 -2 -12 -5z"/>
<path d="M4400 760 c-13 -8 -12 -10 3 -10 9 0 17 5 17 10 0 12 -1 12 -20 0z"/>
<path d="M3583 743 c-20 -7 -15 -19 12 -31 27 -13 32 -5 13 20 -7 9 -19 14
-25 11z"/>
<path d="M2751 718 c17 -34 19 -34 19 -5 0 18 -5 27 -15 27 -13 0 -14 -4 -4
-22z"/>
<path d="M2080 720 c-20 -12 -5 -24 16 -12 9 5 12 12 7 15 -5 3 -15 2 -23 -3z"/>
<path d="M4745 703 c39 -25 65 -35 65 -24 0 15 -26 31 -61 37 l-34 6 30 -19z"/>
<path d="M3470 689 c0 -5 4 -8 9 -5 5 4 12 0 14 -6 3 -8 6 -6 6 5 1 9 -6 17
-14 17 -8 0 -15 -5 -15 -11z"/>
<path d="M4101 684 c0 -10 4 -28 8 -39 8 -19 8 -19 19 1 9 18 8 25 -8 39 -19
17 -20 17 -19 -1z"/>
<path d="M2001 666 c-9 -11 -8 -15 5 -20 23 -9 24 -8 24 14 0 23 -13 26 -29 6z"/>
<path d="M2826 663 c-4 -9 -3 -19 2 -22 12 -8 23 -71 13 -71 -5 0 -12 5 -14
10 -3 6 -4 5 -3 -2 1 -7 10 -14 19 -16 13 -3 17 4 19 27 0 17 1 37 2 44 1 6
-6 12 -14 12 -9 0 -14 8 -12 18 4 22 -4 22 -12 0z"/>
<path d="M5212 648 c-14 -14 -16 -28 -3 -28 5 0 11 9 14 20 6 23 5 24 -11 8z"/>
<path d="M3523 624 c20 -49 40 -71 72 -79 l30 -7 -22 24 c-13 14 -23 34 -23
46 0 25 -18 38 -33 23 -7 -7 -14 -5 -24 7 -11 14 -11 12 0 -14z"/>
<path d="M1767 633 c-4 -3 -2 -12 4 -20 9 -10 7 -13 -7 -13 -16 0 -16 -2 -4
-14 16 -16 90 -38 90 -28 -1 7 -68 82 -73 82 -2 0 -7 -3 -10 -7z"/>
<path d="M2375 630 c4 -6 11 -8 16 -5 14 9 11 15 -7 15 -8 0 -12 -5 -9 -10z"/>
<path d="M4461 607 c14 -11 15 -17 5 -35 -7 -13 -15 -19 -19 -16 -4 4 -7 2 -7
-5 0 -7 9 -9 25 -5 15 4 32 1 40 -6 10 -8 15 -9 15 -2 0 6 -9 17 -21 25 -15
11 -17 17 -8 22 9 6 7 12 -6 22 -24 17 -46 17 -24 0z"/>
<path d="M2220 567 c0 -35 11 -40 36 -16 27 25 23 39 -12 39 -18 0 -24 -5 -24
-23z"/>
<path d="M2790 572 c0 -11 -41 -34 -71 -41 -24 -6 -25 -8 -14 -35 l12 -28 46
48 c47 49 56 64 37 64 -5 0 -10 -3 -10 -8z"/>
<path d="M5397 545 c-15 -14 -27 -30 -27 -36 0 -18 31 -22 70 -9 l39 13 -20
28 c-25 35 -27 35 -62 4z"/>
<path d="M3435 550 c-3 -5 -1 -10 4 -10 6 0 11 5 11 10 0 6 -2 10 -4 10 -3 0
-8 -4 -11 -10z"/>
<path d="M3180 515 c7 -9 15 -13 17 -11 7 7 -7 26 -19 26 -6 0 -6 -6 2 -15z"/>
<path d="M4667 504 c-4 -4 1 -16 10 -27 10 -10 18 -33 18 -50 0 -25 5 -32 29
-38 19 -5 33 -4 42 6 11 11 11 14 -2 19 -17 6 -10 45 9 58 6 3 -9 11 -32 18
-23 6 -48 13 -55 16 -6 2 -15 1 -19 -2z"/>
<path d="M6265 501 c-63 -10 -27 -18 50 -12 52 5 64 8 45 13 -27 8 -35 8 -95
-1z"/>
<path d="M6500 500 c-14 -4 -41 -9 -60 -10 -32 -2 -31 -3 15 -11 28 -5 58 -9
68 -10 12 0 17 -5 13 -14 -3 -8 2 -19 12 -24 18 -9 158 -8 168 1 3 3 -26 13
-65 23 -38 9 -77 25 -87 36 -18 20 -25 21 -64 9z"/>
<path d="M4525 490 c-3 -5 -22 -10 -41 -10 -31 0 -35 -3 -32 -22 2 -15 9 -21
18 -19 8 3 36 7 63 9 49 4 59 16 30 38 -22 16 -30 17 -38 4z"/>
<path d="M2874 475 c-3 -8 -4 -20 -2 -27 3 -7 7 -1 10 15 6 29 1 36 -8 12z"/>
<path d="M2300 476 c0 -3 5 -17 12 -31 9 -20 18 -25 45 -25 20 0 32 4 28 10
-3 6 -11 10 -17 10 -5 0 -23 9 -39 21 -16 11 -29 18 -29 15z"/>
<path d="M3690 460 c0 -5 -11 -10 -25 -10 -14 0 -25 -6 -25 -13 0 -8 6 -14 13
-14 17 0 95 -53 121 -82 17 -19 17 -21 2 -27 -23 -9 -20 -24 4 -19 22 4 25 -3
9 -25 -8 -11 -12 -12 -16 -2 -6 15 -33 16 -33 1 0 -6 11 -24 24 -40 23 -27 25
-28 31 -9 4 11 20 23 38 28 42 11 46 41 13 102 -14 26 -26 57 -26 68 0 24 -4
26 -45 36 -30 8 -30 8 -10 -12 11 -11 24 -19 30 -18 5 0 10 -3 10 -9 1 -5 5
-23 10 -38 4 -15 4 -31 1 -35 -8 -7 -75 64 -95 102 -14 26 -31 35 -31 16z"/>
<path d="M3600 451 c0 -6 5 -13 10 -16 6 -3 10 1 10 9 0 9 -4 16 -10 16 -5 0
-10 -4 -10 -9z"/>
<path d="M2598 428 c5 -5 16 -8 23 -6 8 3 3 7 -10 11 -17 4 -21 3 -13 -5z"/>
<path d="M5738 433 c7 -3 16 -2 19 1 4 3 -2 6 -13 5 -11 0 -14 -3 -6 -6z"/>
<path d="M2858 409 c-14 -15 -15 -19 -2 -30 8 -6 14 -22 14 -35 0 -19 5 -24
25 -24 20 0 25 5 25 24 0 13 -7 30 -16 37 -9 7 -19 20 -23 29 -5 14 -8 14 -23
-1z"/>
<path d="M3620 413 c0 -5 11 -19 25 -31 24 -21 33 -19 17 3 -13 19 -42 38 -42
28z"/>
<path d="M5350 410 c0 -5 7 -10 15 -10 8 0 15 5 15 10 0 6 -7 10 -15 10 -8 0
-15 -4 -15 -10z"/>
<path d="M4070 395 c0 -10 10 -15 31 -15 27 0 30 2 19 15 -7 8 -21 15 -31 15
-11 0 -19 -7 -19 -15z"/>
<path d="M3485 380 c-10 -11 -16 -22 -14 -23 23 -19 79 -47 79 -40 0 4 -10 25
-23 46 -23 38 -23 38 -42 17z"/>
<path d="M3990 353 c1 -19 19 -35 36 -31 15 3 14 6 -9 21 -15 10 -27 14 -27
10z"/>
<path d="M4350 340 c0 -5 5 -10 10 -10 6 0 10 5 10 10 0 6 -4 10 -10 10 -5 0
-10 -4 -10 -10z"/>
<path d="M6845 343 c-38 -9 -42 -25 -6 -21 19 2 36 9 39 16 4 12 1 13 -33 5z"/>
<path d="M3095 320 c3 -5 8 -10 11 -10 2 0 4 5 4 10 0 6 -5 10 -11 10 -5 0 -7
-4 -4 -10z"/>
<path d="M3460 301 c0 -5 5 -13 10 -16 6 -3 10 -2 10 4 0 5 -4 13 -10 16 -5 3
-10 2 -10 -4z"/>
<path d="M7184 258 c-15 -32 -24 -61 -20 -65 4 -4 12 0 17 10 8 13 14 15 29 7
10 -5 21 -10 24 -10 10 0 5 43 -8 80 l-13 35 -29 -57z"/>
<path d="M4899 284 c-11 -14 -10 -15 11 -12 13 1 25 9 28 16 5 17 -23 15 -39
-4z"/>
<path d="M3521 269 l-23 -19 31 0 c31 0 37 6 23 27 -5 8 -14 6 -31 -8z"/>
<path d="M6446 281 c-3 -5 1 -14 10 -22 13 -10 19 -9 37 9 l21 22 -31 0 c-18
0 -34 -4 -37 -9z"/>
<path d="M3985 260 c-3 -5 0 -10 9 -10 8 0 23 -3 33 -7 16 -6 16 -5 4 10 -15
19 -37 22 -46 7z"/>
<path d="M4263 249 c40 -21 60 -18 50 6 -3 10 -19 15 -47 15 l-41 -1 38 -20z"/>
<path d="M3371 236 c-10 -12 -8 -17 10 -26 17 -10 23 -9 30 1 12 20 11 31 -2
23 -6 -3 -15 -1 -19 5 -5 9 -10 8 -19 -3z"/>
<path d="M6794 233 c-10 -10 -12 -19 -6 -21 14 -4 52 16 52 28 0 16 -27 11
-46 -7z"/>
<path d="M6921 237 c-12 -15 -5 -27 16 -27 7 0 13 9 13 20 0 23 -13 26 -29 7z"/>
<path d="M5615 224 c-28 -13 -28 -14 -4 -9 14 2 34 -2 45 -10 21 -16 124 -21
124 -5 0 5 -23 8 -51 7 -38 -1 -54 2 -63 16 -15 20 -13 20 -51 1z"/>
<path d="M6655 210 c-9 -15 43 -32 63 -20 16 9 16 9 0 10 -10 0 -18 5 -18 10
0 13 -37 13 -45 0z"/>
<path d="M1900 200 c0 -5 5 -10 10 -10 6 0 10 5 10 10 0 6 -4 10 -10 10 -5 0
-10 -4 -10 -10z"/>
<path d="M6408 203 c-30 -5 -34 -13 -17 -30 13 -13 76 4 83 24 5 13 -9 15 -66
6z"/>
<path d="M1840 180 c0 -5 5 -10 11 -10 5 0 7 5 4 10 -3 6 -8 10 -11 10 -2 0
-4 -4 -4 -10z"/>
<path d="M3800 187 c0 -2 13 -16 29 -31 25 -24 29 -26 25 -9 -5 16 -54 52 -54
40z"/>
<path d="M3240 135 c0 -15 4 -24 10 -20 6 3 10 12 10 20 0 8 -4 17 -10 20 -6
4 -10 -5 -10 -20z"/>
<path d="M3020 110 c-13 -8 -12 -10 3 -10 9 0 17 5 17 10 0 12 -1 12 -20 0z"/>
<path d="M6973 102 l-32 -17 23 -11 c21 -10 26 -8 40 18 20 32 14 34 -31 10z"/>
<path d="M2820 95 c7 -8 16 -15 21 -15 5 0 9 7 9 15 0 9 -9 15 -21 15 -18 0
-19 -2 -9 -15z"/>
<path d="M3822 101 c-9 -5 -2 -15 26 -34 42 -27 52 -26 52 5 0 13 -8 18 -29
18 -16 0 -31 4 -33 10 -1 5 -9 6 -16 1z"/>
<path d="M7250 86 c0 -13 -3 -38 -6 -55 -6 -29 -5 -31 25 -31 28 0 31 3 31 30
0 31 -25 80 -41 80 -5 0 -9 -11 -9 -24z"/>
<path d="M3105 70 c3 -5 8 -10 11 -10 2 0 4 5 4 10 0 6 -5 10 -11 10 -5 0 -7
-4 -4 -10z"/>
<path d="M3432 47 c1 -21 7 -37 15 -37 9 0 9 7 1 33 -16 46 -19 47 -16 4z"/>
<path d="M6846 71 c-4 -5 3 -7 14 -4 23 6 26 13 6 13 -8 0 -17 -4 -20 -9z"/>
<path d="M7106 47 c-32 -42 -32 -47 -2 -47 19 0 25 7 31 36 9 49 2 52 -29 11z"/>
<path d="M4225 51 c-2 -5 6 -16 19 -24 22 -15 24 -15 19 3 -5 21 -29 34 -38
21z"/>
<path d="M5874 50 c-12 -5 -25 -13 -29 -19 -11 -18 21 -12 46 9 25 20 18 25
-17 10z"/>
</g>
</svg>
